<mxfile host="app.diagrams.net" modified="2023-11-09T20:41:26.182Z" agent="5.0 (Windows)" etag="I4pmDzI7OtHZpD8A-8va" version="20.8.20" type="github">
  <diagram name="Page-1" id="baaQARDEk_7l0ZvZ5XyR">
    <mxGraphModel dx="2868" dy="2677" grid="1" gridSize="10" guides="1" tooltips="1" connect="1" arrows="1" fold="1" page="1" pageScale="1" pageWidth="827" pageHeight="1169" math="0" shadow="0">
      <root>
        <mxCell id="0" />
        <mxCell id="1" parent="0" />
        <mxCell id="6YbAfjC64AcFJxxGZk0X-28" value="" style="rounded=0;whiteSpace=wrap;html=1;fontSize=50;fontColor=#000000;fillColor=#000000;" vertex="1" parent="1">
          <mxGeometry x="20" y="-360" width="580" height="350" as="geometry" />
        </mxCell>
        <mxCell id="6YbAfjC64AcFJxxGZk0X-10" style="edgeStyle=orthogonalEdgeStyle;rounded=0;orthogonalLoop=1;jettySize=auto;html=1;entryX=0;entryY=0.5;entryDx=0;entryDy=0;" edge="1" parent="1" source="0PXavtgoB8_as1gzpacM-1" target="0PXavtgoB8_as1gzpacM-7">
          <mxGeometry relative="1" as="geometry" />
        </mxCell>
        <mxCell id="6YbAfjC64AcFJxxGZk0X-25" style="edgeStyle=orthogonalEdgeStyle;rounded=0;orthogonalLoop=1;jettySize=auto;html=1;entryX=0;entryY=0.5;entryDx=0;entryDy=0;" edge="1" parent="1" source="0PXavtgoB8_as1gzpacM-1" target="6YbAfjC64AcFJxxGZk0X-24">
          <mxGeometry relative="1" as="geometry" />
        </mxCell>
        <mxCell id="0PXavtgoB8_as1gzpacM-1" value="Utilisateur" style="shape=umlActor;verticalLabelPosition=bottom;verticalAlign=top;html=1;outlineConnect=0;" parent="1" vertex="1">
          <mxGeometry x="120" y="270" width="40" height="80" as="geometry" />
        </mxCell>
        <mxCell id="0PXavtgoB8_as1gzpacM-9" style="edgeStyle=orthogonalEdgeStyle;rounded=0;orthogonalLoop=1;jettySize=auto;html=1;" parent="1" source="0PXavtgoB8_as1gzpacM-7" target="0PXavtgoB8_as1gzpacM-8" edge="1">
          <mxGeometry relative="1" as="geometry">
            <Array as="points">
              <mxPoint x="410" y="100" />
            </Array>
          </mxGeometry>
        </mxCell>
        <mxCell id="0PXavtgoB8_as1gzpacM-12" style="edgeStyle=orthogonalEdgeStyle;rounded=0;orthogonalLoop=1;jettySize=auto;html=1;entryX=0;entryY=0.5;entryDx=0;entryDy=0;" parent="1" source="0PXavtgoB8_as1gzpacM-7" target="0PXavtgoB8_as1gzpacM-11" edge="1">
          <mxGeometry relative="1" as="geometry">
            <Array as="points">
              <mxPoint x="410" y="350" />
            </Array>
          </mxGeometry>
        </mxCell>
        <mxCell id="0PXavtgoB8_as1gzpacM-7" value="&lt;div&gt;Consulter la carte&lt;/div&gt;" style="ellipse;whiteSpace=wrap;html=1;fillColor=#d80073;strokeColor=#A50040;fontColor=#ffffff;" parent="1" vertex="1">
          <mxGeometry x="354" y="160" width="120" height="80" as="geometry" />
        </mxCell>
        <mxCell id="0PXavtgoB8_as1gzpacM-15" style="edgeStyle=orthogonalEdgeStyle;rounded=0;orthogonalLoop=1;jettySize=auto;html=1;" parent="1" source="0PXavtgoB8_as1gzpacM-8" target="0PXavtgoB8_as1gzpacM-14" edge="1">
          <mxGeometry relative="1" as="geometry" />
        </mxCell>
        <mxCell id="6YbAfjC64AcFJxxGZk0X-13" style="edgeStyle=orthogonalEdgeStyle;rounded=0;orthogonalLoop=1;jettySize=auto;html=1;entryX=0;entryY=0.5;entryDx=0;entryDy=0;" edge="1" parent="1" source="0PXavtgoB8_as1gzpacM-8" target="6YbAfjC64AcFJxxGZk0X-12">
          <mxGeometry relative="1" as="geometry">
            <Array as="points">
              <mxPoint x="680" y="-40" />
            </Array>
          </mxGeometry>
        </mxCell>
        <mxCell id="6YbAfjC64AcFJxxGZk0X-19" style="edgeStyle=orthogonalEdgeStyle;rounded=0;orthogonalLoop=1;jettySize=auto;html=1;entryX=0.5;entryY=1;entryDx=0;entryDy=0;" edge="1" parent="1" source="0PXavtgoB8_as1gzpacM-8" target="6YbAfjC64AcFJxxGZk0X-18">
          <mxGeometry relative="1" as="geometry" />
        </mxCell>
        <mxCell id="0PXavtgoB8_as1gzpacM-8" value="Afficher un commerce" style="ellipse;whiteSpace=wrap;html=1;fillColor=#d80073;strokeColor=#A50040;fontColor=#ffffff;" parent="1" vertex="1">
          <mxGeometry x="620" y="60" width="120" height="80" as="geometry" />
        </mxCell>
        <mxCell id="0PXavtgoB8_as1gzpacM-10" value="include" style="text;html=1;strokeColor=none;fillColor=none;align=center;verticalAlign=middle;whiteSpace=wrap;rounded=0;rotation=0;" parent="1" vertex="1">
          <mxGeometry x="490" y="70" width="60" height="30" as="geometry" />
        </mxCell>
        <mxCell id="0PXavtgoB8_as1gzpacM-11" value="Filtrer les commerces &lt;br&gt;par type" style="ellipse;whiteSpace=wrap;html=1;fillColor=#1ba1e2;fontColor=#ffffff;strokeColor=#006EAF;" parent="1" vertex="1">
          <mxGeometry x="620" y="310" width="120" height="80" as="geometry" />
        </mxCell>
        <mxCell id="0PXavtgoB8_as1gzpacM-13" value="include" style="text;html=1;strokeColor=none;fillColor=none;align=center;verticalAlign=middle;whiteSpace=wrap;rounded=0;rotation=0;" parent="1" vertex="1">
          <mxGeometry x="490" y="320" width="60" height="30" as="geometry" />
        </mxCell>
        <mxCell id="0PXavtgoB8_as1gzpacM-14" value="&lt;div&gt;Noter et laisser un commentaire à propos&amp;nbsp;&lt;/div&gt;&lt;div&gt;du commerce&lt;/div&gt;" style="ellipse;whiteSpace=wrap;html=1;fillColor=#e3c800;fontColor=#000000;strokeColor=#B09500;" parent="1" vertex="1">
          <mxGeometry x="880" y="60" width="160" height="80" as="geometry" />
        </mxCell>
        <mxCell id="0PXavtgoB8_as1gzpacM-16" value="extend" style="text;html=1;strokeColor=none;fillColor=none;align=center;verticalAlign=middle;whiteSpace=wrap;rounded=0;rotation=0;" parent="1" vertex="1">
          <mxGeometry x="780" y="70" width="60" height="30" as="geometry" />
        </mxCell>
        <mxCell id="6YbAfjC64AcFJxxGZk0X-2" style="edgeStyle=orthogonalEdgeStyle;rounded=0;orthogonalLoop=1;jettySize=auto;html=1;entryX=0;entryY=0.5;entryDx=0;entryDy=0;" edge="1" parent="1" source="0PXavtgoB8_as1gzpacM-17" target="6YbAfjC64AcFJxxGZk0X-1">
          <mxGeometry relative="1" as="geometry" />
        </mxCell>
        <mxCell id="6YbAfjC64AcFJxxGZk0X-16" style="edgeStyle=orthogonalEdgeStyle;rounded=0;orthogonalLoop=1;jettySize=auto;html=1;entryX=0;entryY=0.5;entryDx=0;entryDy=0;" edge="1" parent="1" source="0PXavtgoB8_as1gzpacM-17" target="6YbAfjC64AcFJxxGZk0X-15">
          <mxGeometry relative="1" as="geometry">
            <Array as="points">
              <mxPoint x="940" y="350" />
            </Array>
          </mxGeometry>
        </mxCell>
        <mxCell id="0PXavtgoB8_as1gzpacM-17" value="Afficher un produit" style="ellipse;whiteSpace=wrap;html=1;fillColor=#d80073;fontColor=#ffffff;strokeColor=#A50040;" parent="1" vertex="1">
          <mxGeometry x="880" y="180" width="120" height="80" as="geometry" />
        </mxCell>
        <mxCell id="0PXavtgoB8_as1gzpacM-21" style="edgeStyle=orthogonalEdgeStyle;rounded=0;orthogonalLoop=1;jettySize=auto;html=1;" parent="1" source="0PXavtgoB8_as1gzpacM-8" target="0PXavtgoB8_as1gzpacM-17" edge="1">
          <mxGeometry relative="1" as="geometry">
            <mxPoint x="870" y="210" as="targetPoint" />
            <Array as="points">
              <mxPoint x="680" y="220" />
            </Array>
          </mxGeometry>
        </mxCell>
        <mxCell id="0PXavtgoB8_as1gzpacM-22" value="extend" style="text;html=1;strokeColor=none;fillColor=none;align=center;verticalAlign=middle;whiteSpace=wrap;rounded=0;rotation=0;" parent="1" vertex="1">
          <mxGeometry x="780" y="190" width="60" height="30" as="geometry" />
        </mxCell>
        <mxCell id="6YbAfjC64AcFJxxGZk0X-5" style="edgeStyle=orthogonalEdgeStyle;rounded=0;orthogonalLoop=1;jettySize=auto;html=1;" edge="1" parent="1" source="6YbAfjC64AcFJxxGZk0X-1" target="6YbAfjC64AcFJxxGZk0X-4">
          <mxGeometry relative="1" as="geometry" />
        </mxCell>
        <mxCell id="6YbAfjC64AcFJxxGZk0X-1" value="L&#39;ajouter au panier" style="ellipse;whiteSpace=wrap;html=1;fillColor=#d80073;fontColor=#ffffff;strokeColor=#A50040;" vertex="1" parent="1">
          <mxGeometry x="1090" y="180" width="120" height="80" as="geometry" />
        </mxCell>
        <mxCell id="6YbAfjC64AcFJxxGZk0X-3" value="extend" style="text;html=1;strokeColor=none;fillColor=none;align=center;verticalAlign=middle;whiteSpace=wrap;rounded=0;rotation=0;" vertex="1" parent="1">
          <mxGeometry x="1010" y="190" width="60" height="30" as="geometry" />
        </mxCell>
        <mxCell id="6YbAfjC64AcFJxxGZk0X-8" style="edgeStyle=orthogonalEdgeStyle;rounded=0;orthogonalLoop=1;jettySize=auto;html=1;" edge="1" parent="1" source="6YbAfjC64AcFJxxGZk0X-4" target="6YbAfjC64AcFJxxGZk0X-7">
          <mxGeometry relative="1" as="geometry" />
        </mxCell>
        <mxCell id="6YbAfjC64AcFJxxGZk0X-22" style="edgeStyle=orthogonalEdgeStyle;rounded=0;orthogonalLoop=1;jettySize=auto;html=1;" edge="1" parent="1" source="6YbAfjC64AcFJxxGZk0X-4" target="6YbAfjC64AcFJxxGZk0X-21">
          <mxGeometry relative="1" as="geometry" />
        </mxCell>
        <mxCell id="6YbAfjC64AcFJxxGZk0X-4" value="Payer et réserver" style="ellipse;whiteSpace=wrap;html=1;fillColor=#d80073;fontColor=#ffffff;strokeColor=#A50040;" vertex="1" parent="1">
          <mxGeometry x="1300" y="180" width="120" height="80" as="geometry" />
        </mxCell>
        <mxCell id="6YbAfjC64AcFJxxGZk0X-6" value="include" style="text;html=1;strokeColor=none;fillColor=none;align=center;verticalAlign=middle;whiteSpace=wrap;rounded=0;rotation=0;" vertex="1" parent="1">
          <mxGeometry x="1220" y="190" width="60" height="30" as="geometry" />
        </mxCell>
        <mxCell id="6YbAfjC64AcFJxxGZk0X-7" value="Récuperer sa commande en boutique" style="ellipse;whiteSpace=wrap;html=1;fillColor=#d80073;fontColor=#ffffff;strokeColor=#A50040;" vertex="1" parent="1">
          <mxGeometry x="1530" y="180" width="120" height="80" as="geometry" />
        </mxCell>
        <mxCell id="6YbAfjC64AcFJxxGZk0X-9" value="include" style="text;html=1;strokeColor=none;fillColor=none;align=center;verticalAlign=middle;whiteSpace=wrap;rounded=0;rotation=0;" vertex="1" parent="1">
          <mxGeometry x="1450" y="190" width="60" height="30" as="geometry" />
        </mxCell>
        <mxCell id="6YbAfjC64AcFJxxGZk0X-11" value="include" style="text;html=1;strokeColor=none;fillColor=none;align=center;verticalAlign=middle;whiteSpace=wrap;rounded=0;rotation=0;" vertex="1" parent="1">
          <mxGeometry x="270" y="170" width="60" height="30" as="geometry" />
        </mxCell>
        <mxCell id="6YbAfjC64AcFJxxGZk0X-12" value="L&#39;ajouter en favoris" style="ellipse;whiteSpace=wrap;html=1;fillColor=#1ba1e2;fontColor=#ffffff;strokeColor=#006EAF;" vertex="1" parent="1">
          <mxGeometry x="880" y="-80" width="120" height="80" as="geometry" />
        </mxCell>
        <mxCell id="6YbAfjC64AcFJxxGZk0X-14" value="extend" style="text;html=1;strokeColor=none;fillColor=none;align=center;verticalAlign=middle;whiteSpace=wrap;rounded=0;rotation=0;" vertex="1" parent="1">
          <mxGeometry x="780" y="-80" width="60" height="30" as="geometry" />
        </mxCell>
        <mxCell id="6YbAfjC64AcFJxxGZk0X-15" value="L&#39;ajouter en favoris" style="ellipse;whiteSpace=wrap;html=1;fillColor=#1ba1e2;fontColor=#ffffff;strokeColor=#006EAF;" vertex="1" parent="1">
          <mxGeometry x="1090" y="310" width="120" height="80" as="geometry" />
        </mxCell>
        <mxCell id="6YbAfjC64AcFJxxGZk0X-17" value="extend" style="text;html=1;strokeColor=none;fillColor=none;align=center;verticalAlign=middle;whiteSpace=wrap;rounded=0;rotation=0;" vertex="1" parent="1">
          <mxGeometry x="990" y="320" width="60" height="30" as="geometry" />
        </mxCell>
        <mxCell id="6YbAfjC64AcFJxxGZk0X-18" value="&lt;div&gt;Distance&amp;nbsp;&lt;/div&gt;&lt;div&gt;utilisateur - commerce&lt;br&gt;&lt;/div&gt;" style="ellipse;whiteSpace=wrap;html=1;fillColor=#e3c800;fontColor=#000000;strokeColor=#B09500;" vertex="1" parent="1">
          <mxGeometry x="620" y="-260" width="120" height="80" as="geometry" />
        </mxCell>
        <mxCell id="6YbAfjC64AcFJxxGZk0X-20" value="include" style="text;html=1;strokeColor=none;fillColor=none;align=center;verticalAlign=middle;whiteSpace=wrap;rounded=0;rotation=0;" vertex="1" parent="1">
          <mxGeometry x="610" y="-120" width="60" height="30" as="geometry" />
        </mxCell>
        <mxCell id="6YbAfjC64AcFJxxGZk0X-21" value="&lt;div&gt;Noter et laisser un commentaire à propos&amp;nbsp;&lt;/div&gt;&lt;div&gt;du produit&lt;/div&gt;" style="ellipse;whiteSpace=wrap;html=1;fillColor=#e3c800;fontColor=#000000;strokeColor=#B09500;" vertex="1" parent="1">
          <mxGeometry x="1270" y="310" width="180" height="80" as="geometry" />
        </mxCell>
        <mxCell id="6YbAfjC64AcFJxxGZk0X-23" value="extend" style="text;html=1;strokeColor=none;fillColor=none;align=center;verticalAlign=middle;whiteSpace=wrap;rounded=0;rotation=0;" vertex="1" parent="1">
          <mxGeometry x="1370" y="270" width="60" height="30" as="geometry" />
        </mxCell>
        <mxCell id="6YbAfjC64AcFJxxGZk0X-24" value="Agir sur le réseau social interne" style="ellipse;whiteSpace=wrap;html=1;fillColor=#ffff88;strokeColor=#36393d;" vertex="1" parent="1">
          <mxGeometry x="354" y="470" width="120" height="80" as="geometry" />
        </mxCell>
        <mxCell id="6YbAfjC64AcFJxxGZk0X-26" value="&lt;div&gt;&lt;font color=&quot;#d80073&quot; style=&quot;font-size: 50px;&quot;&gt;Rouge &lt;/font&gt;&lt;font color=&quot;#ffffff&quot; style=&quot;font-size: 50px;&quot;&gt;= Must&lt;/font&gt;&lt;/div&gt;&lt;div&gt;&lt;font color=&quot;#1ba1e2&quot; style=&quot;font-size: 50px;&quot;&gt;Bleu &lt;/font&gt;&lt;font color=&quot;#ffffff&quot; style=&quot;font-size: 50px;&quot;&gt;= Should&lt;/font&gt;&lt;/div&gt;&lt;div&gt;&lt;font color=&quot;#e3c800&quot; style=&quot;font-size: 50px;&quot;&gt;Doré &lt;/font&gt;&lt;font color=&quot;#ffffff&quot; style=&quot;font-size: 50px;&quot;&gt;= Could&lt;br&gt;&lt;/font&gt;&lt;/div&gt;&lt;div&gt;&lt;font color=&quot;#ffff88&quot; style=&quot;font-size: 50px;&quot;&gt;Jaune Pâle&lt;/font&gt;&lt;font color=&quot;#ffffff&quot; style=&quot;font-size: 50px;&quot;&gt; &lt;/font&gt;&lt;font color=&quot;#ffffff&quot; style=&quot;font-size: 50px;&quot;&gt;= Want to&lt;br&gt;&lt;/font&gt;&lt;/div&gt;" style="text;html=1;strokeColor=none;fillColor=none;align=center;verticalAlign=middle;whiteSpace=wrap;rounded=0;" vertex="1" parent="1">
          <mxGeometry x="40" y="-350" width="540" height="330" as="geometry" />
        </mxCell>
        <mxCell id="6YbAfjC64AcFJxxGZk0X-31" style="edgeStyle=orthogonalEdgeStyle;rounded=0;orthogonalLoop=1;jettySize=auto;html=1;fontSize=50;fontColor=#FFFFFF;" edge="1" parent="1" source="6YbAfjC64AcFJxxGZk0X-29" target="6YbAfjC64AcFJxxGZk0X-30">
          <mxGeometry relative="1" as="geometry" />
        </mxCell>
        <mxCell id="6YbAfjC64AcFJxxGZk0X-29" value="Commerçant" style="shape=umlActor;verticalLabelPosition=bottom;verticalAlign=top;html=1;outlineConnect=0;" vertex="1" parent="1">
          <mxGeometry x="111" y="780" width="40" height="80" as="geometry" />
        </mxCell>
        <mxCell id="6YbAfjC64AcFJxxGZk0X-42" style="edgeStyle=orthogonalEdgeStyle;rounded=0;orthogonalLoop=1;jettySize=auto;html=1;fontSize=50;fontColor=#FFFFFF;" edge="1" parent="1" source="6YbAfjC64AcFJxxGZk0X-30" target="6YbAfjC64AcFJxxGZk0X-41">
          <mxGeometry relative="1" as="geometry" />
        </mxCell>
        <mxCell id="6YbAfjC64AcFJxxGZk0X-30" value="&lt;div&gt;Créer sa page commerce&lt;br&gt;&lt;/div&gt;" style="ellipse;whiteSpace=wrap;html=1;fillColor=#d80073;strokeColor=#A50040;fontColor=#ffffff;" vertex="1" parent="1">
          <mxGeometry x="344" y="780" width="120" height="80" as="geometry" />
        </mxCell>
        <mxCell id="6YbAfjC64AcFJxxGZk0X-32" value="include" style="text;html=1;strokeColor=none;fillColor=none;align=center;verticalAlign=middle;whiteSpace=wrap;rounded=0;rotation=0;" vertex="1" parent="1">
          <mxGeometry x="230" y="790" width="60" height="30" as="geometry" />
        </mxCell>
        <mxCell id="6YbAfjC64AcFJxxGZk0X-34" value="extend" style="text;html=1;strokeColor=none;fillColor=none;align=center;verticalAlign=middle;whiteSpace=wrap;rounded=0;rotation=0;" vertex="1" parent="1">
          <mxGeometry x="270" y="480" width="60" height="30" as="geometry" />
        </mxCell>
        <mxCell id="6YbAfjC64AcFJxxGZk0X-54" style="edgeStyle=orthogonalEdgeStyle;rounded=0;orthogonalLoop=1;jettySize=auto;html=1;fontSize=50;fontColor=#FFFFFF;" edge="1" parent="1" source="6YbAfjC64AcFJxxGZk0X-35" target="6YbAfjC64AcFJxxGZk0X-53">
          <mxGeometry relative="1" as="geometry" />
        </mxCell>
        <mxCell id="6YbAfjC64AcFJxxGZk0X-35" value="Ajouter un produit" style="ellipse;whiteSpace=wrap;html=1;fillColor=#d80073;strokeColor=#A50040;fontColor=#ffffff;" vertex="1" parent="1">
          <mxGeometry x="600" y="590" width="120" height="80" as="geometry" />
        </mxCell>
        <mxCell id="6YbAfjC64AcFJxxGZk0X-37" value="Supprimer un produit" style="ellipse;whiteSpace=wrap;html=1;fillColor=#d80073;strokeColor=#A50040;fontColor=#ffffff;" vertex="1" parent="1">
          <mxGeometry x="600" y="940" width="120" height="80" as="geometry" />
        </mxCell>
        <mxCell id="6YbAfjC64AcFJxxGZk0X-39" value="include" style="text;html=1;strokeColor=none;fillColor=none;align=center;verticalAlign=middle;whiteSpace=wrap;rounded=0;rotation=0;" vertex="1" parent="1">
          <mxGeometry x="600" y="710" width="60" height="30" as="geometry" />
        </mxCell>
        <mxCell id="6YbAfjC64AcFJxxGZk0X-40" value="extend" style="text;html=1;strokeColor=none;fillColor=none;align=center;verticalAlign=middle;whiteSpace=wrap;rounded=0;rotation=0;" vertex="1" parent="1">
          <mxGeometry x="600" y="890" width="60" height="30" as="geometry" />
        </mxCell>
        <mxCell id="6YbAfjC64AcFJxxGZk0X-44" style="edgeStyle=orthogonalEdgeStyle;rounded=0;orthogonalLoop=1;jettySize=auto;html=1;entryX=0.5;entryY=0;entryDx=0;entryDy=0;fontSize=50;fontColor=#FFFFFF;" edge="1" parent="1" source="6YbAfjC64AcFJxxGZk0X-41" target="6YbAfjC64AcFJxxGZk0X-37">
          <mxGeometry relative="1" as="geometry" />
        </mxCell>
        <mxCell id="6YbAfjC64AcFJxxGZk0X-45" style="edgeStyle=orthogonalEdgeStyle;rounded=0;orthogonalLoop=1;jettySize=auto;html=1;fontSize=50;fontColor=#FFFFFF;" edge="1" parent="1" source="6YbAfjC64AcFJxxGZk0X-41" target="6YbAfjC64AcFJxxGZk0X-35">
          <mxGeometry relative="1" as="geometry" />
        </mxCell>
        <mxCell id="6YbAfjC64AcFJxxGZk0X-47" style="edgeStyle=orthogonalEdgeStyle;rounded=0;orthogonalLoop=1;jettySize=auto;html=1;entryX=0;entryY=0.5;entryDx=0;entryDy=0;fontSize=50;fontColor=#FFFFFF;" edge="1" parent="1" source="6YbAfjC64AcFJxxGZk0X-41" target="6YbAfjC64AcFJxxGZk0X-46">
          <mxGeometry relative="1" as="geometry">
            <Array as="points">
              <mxPoint x="660" y="730" />
              <mxPoint x="760" y="730" />
              <mxPoint x="760" y="630" />
            </Array>
          </mxGeometry>
        </mxCell>
        <mxCell id="6YbAfjC64AcFJxxGZk0X-58" style="edgeStyle=orthogonalEdgeStyle;rounded=0;orthogonalLoop=1;jettySize=auto;html=1;entryX=0.5;entryY=0;entryDx=0;entryDy=0;fontSize=50;fontColor=#FFFFFF;" edge="1" parent="1" source="6YbAfjC64AcFJxxGZk0X-41" target="6YbAfjC64AcFJxxGZk0X-57">
          <mxGeometry relative="1" as="geometry">
            <Array as="points">
              <mxPoint x="860" y="850" />
            </Array>
          </mxGeometry>
        </mxCell>
        <mxCell id="6YbAfjC64AcFJxxGZk0X-61" style="edgeStyle=orthogonalEdgeStyle;rounded=0;orthogonalLoop=1;jettySize=auto;html=1;entryX=0;entryY=0.5;entryDx=0;entryDy=0;fontSize=50;fontColor=#FFFFFF;" edge="1" parent="1" source="6YbAfjC64AcFJxxGZk0X-41" target="6YbAfjC64AcFJxxGZk0X-60">
          <mxGeometry relative="1" as="geometry">
            <Array as="points">
              <mxPoint x="870" y="820" />
              <mxPoint x="870" y="730" />
            </Array>
          </mxGeometry>
        </mxCell>
        <mxCell id="6YbAfjC64AcFJxxGZk0X-65" style="edgeStyle=orthogonalEdgeStyle;rounded=0;orthogonalLoop=1;jettySize=auto;html=1;fontSize=50;fontColor=#FFFFFF;entryX=0;entryY=0.5;entryDx=0;entryDy=0;" edge="1" parent="1" source="6YbAfjC64AcFJxxGZk0X-41" target="6YbAfjC64AcFJxxGZk0X-67">
          <mxGeometry relative="1" as="geometry">
            <mxPoint x="1130" y="850" as="targetPoint" />
            <Array as="points">
              <mxPoint x="870" y="820" />
              <mxPoint x="870" y="850" />
            </Array>
          </mxGeometry>
        </mxCell>
        <mxCell id="6YbAfjC64AcFJxxGZk0X-71" style="edgeStyle=orthogonalEdgeStyle;rounded=0;orthogonalLoop=1;jettySize=auto;html=1;entryX=1;entryY=0.5;entryDx=0;entryDy=0;fontSize=50;fontColor=#FFFFFF;" edge="1" parent="1" source="6YbAfjC64AcFJxxGZk0X-41" target="6YbAfjC64AcFJxxGZk0X-68">
          <mxGeometry relative="1" as="geometry">
            <Array as="points">
              <mxPoint x="510" y="860" />
              <mxPoint x="510" y="1129" />
            </Array>
          </mxGeometry>
        </mxCell>
        <mxCell id="6YbAfjC64AcFJxxGZk0X-41" value="&lt;div&gt;Consulter sa page commerce&lt;br&gt;&lt;/div&gt;" style="ellipse;whiteSpace=wrap;html=1;fillColor=#d80073;strokeColor=#A50040;fontColor=#ffffff;" vertex="1" parent="1">
          <mxGeometry x="600" y="780" width="120" height="80" as="geometry" />
        </mxCell>
        <mxCell id="6YbAfjC64AcFJxxGZk0X-43" value="include" style="text;html=1;strokeColor=none;fillColor=none;align=center;verticalAlign=middle;whiteSpace=wrap;rounded=0;rotation=0;" vertex="1" parent="1">
          <mxGeometry x="500" y="790" width="60" height="30" as="geometry" />
        </mxCell>
        <mxCell id="6YbAfjC64AcFJxxGZk0X-50" style="edgeStyle=orthogonalEdgeStyle;rounded=0;orthogonalLoop=1;jettySize=auto;html=1;fontSize=50;fontColor=#FFFFFF;" edge="1" parent="1" source="6YbAfjC64AcFJxxGZk0X-46" target="6YbAfjC64AcFJxxGZk0X-49">
          <mxGeometry relative="1" as="geometry" />
        </mxCell>
        <mxCell id="6YbAfjC64AcFJxxGZk0X-46" value="Modifier un produit" style="ellipse;whiteSpace=wrap;html=1;fillColor=#1ba1e2;strokeColor=#006EAF;fontColor=#ffffff;" vertex="1" parent="1">
          <mxGeometry x="800" y="590" width="120" height="80" as="geometry" />
        </mxCell>
        <mxCell id="6YbAfjC64AcFJxxGZk0X-48" value="extend" style="text;html=1;strokeColor=none;fillColor=none;align=center;verticalAlign=middle;whiteSpace=wrap;rounded=0;rotation=0;" vertex="1" parent="1">
          <mxGeometry x="760" y="680" width="60" height="30" as="geometry" />
        </mxCell>
        <mxCell id="6YbAfjC64AcFJxxGZk0X-49" value="Gérer sa disponibilité" style="ellipse;whiteSpace=wrap;html=1;fillColor=#1ba1e2;strokeColor=#006EAF;fontColor=#ffffff;" vertex="1" parent="1">
          <mxGeometry x="1000" y="590" width="120" height="80" as="geometry" />
        </mxCell>
        <mxCell id="6YbAfjC64AcFJxxGZk0X-51" value="include" style="text;html=1;strokeColor=none;fillColor=none;align=center;verticalAlign=middle;whiteSpace=wrap;rounded=0;rotation=0;" vertex="1" parent="1">
          <mxGeometry x="930" y="600" width="60" height="30" as="geometry" />
        </mxCell>
        <mxCell id="6YbAfjC64AcFJxxGZk0X-53" value="Ajouter une photo du produit" style="ellipse;whiteSpace=wrap;html=1;fillColor=#1ba1e2;strokeColor=#006EAF;fontColor=#ffffff;" vertex="1" parent="1">
          <mxGeometry x="600" y="450" width="120" height="80" as="geometry" />
        </mxCell>
        <mxCell id="6YbAfjC64AcFJxxGZk0X-55" value="include" style="text;html=1;strokeColor=none;fillColor=none;align=center;verticalAlign=middle;whiteSpace=wrap;rounded=0;rotation=0;" vertex="1" parent="1">
          <mxGeometry x="600" y="550" width="60" height="30" as="geometry" />
        </mxCell>
        <mxCell id="6YbAfjC64AcFJxxGZk0X-57" value="Modifier les informations de son commerce (horaires)" style="ellipse;whiteSpace=wrap;html=1;fillColor=#1ba1e2;strokeColor=#006EAF;fontColor=#ffffff;" vertex="1" parent="1">
          <mxGeometry x="775" y="940" width="170" height="80" as="geometry" />
        </mxCell>
        <mxCell id="6YbAfjC64AcFJxxGZk0X-60" value="Scanner le QRcode des clients via l&#39;application" style="ellipse;whiteSpace=wrap;html=1;fillColor=#e3c800;strokeColor=#B09500;fontColor=#000000;" vertex="1" parent="1">
          <mxGeometry x="1110" y="690" width="170" height="80" as="geometry" />
        </mxCell>
        <mxCell id="6YbAfjC64AcFJxxGZk0X-63" value="extend" style="text;html=1;strokeColor=none;fillColor=none;align=center;verticalAlign=middle;whiteSpace=wrap;rounded=0;rotation=0;" vertex="1" parent="1">
          <mxGeometry x="945" y="700" width="60" height="30" as="geometry" />
        </mxCell>
        <mxCell id="6YbAfjC64AcFJxxGZk0X-66" value="extend" style="text;html=1;strokeColor=none;fillColor=none;align=center;verticalAlign=middle;whiteSpace=wrap;rounded=0;rotation=0;" vertex="1" parent="1">
          <mxGeometry x="945" y="820" width="60" height="30" as="geometry" />
        </mxCell>
        <mxCell id="6YbAfjC64AcFJxxGZk0X-67" value="Voir les commandes en cours et les préparer" style="ellipse;whiteSpace=wrap;html=1;fillColor=#e3c800;strokeColor=#B09500;fontColor=#000000;" vertex="1" parent="1">
          <mxGeometry x="1110" y="810" width="170" height="80" as="geometry" />
        </mxCell>
        <mxCell id="6YbAfjC64AcFJxxGZk0X-68" value="Agir sur le réseau social interne" style="ellipse;whiteSpace=wrap;html=1;fillColor=#ffff88;strokeColor=#36393d;" vertex="1" parent="1">
          <mxGeometry x="360" y="1089" width="120" height="80" as="geometry" />
        </mxCell>
        <mxCell id="6YbAfjC64AcFJxxGZk0X-70" value="extend" style="text;html=1;strokeColor=none;fillColor=none;align=center;verticalAlign=middle;whiteSpace=wrap;rounded=0;rotation=0;" vertex="1" parent="1">
          <mxGeometry x="420" y="990" width="60" height="30" as="geometry" />
        </mxCell>
        <mxCell id="6YbAfjC64AcFJxxGZk0X-72" style="edgeStyle=orthogonalEdgeStyle;rounded=0;orthogonalLoop=1;jettySize=auto;html=1;exitX=0.5;exitY=1;exitDx=0;exitDy=0;fontSize=50;fontColor=#FFFFFF;" edge="1" parent="1" source="6YbAfjC64AcFJxxGZk0X-48" target="6YbAfjC64AcFJxxGZk0X-48">
          <mxGeometry relative="1" as="geometry" />
        </mxCell>
      </root>
    </mxGraphModel>
  </diagram>
</mxfile>
